<svg width="21" height="22" viewBox="0 0 21 22" fill="none" xmlns="http://www.w3.org/2000/svg">
<path d="M10.5 8.49969C10.0055 8.49987 9.52221 8.64667 9.11116 8.92152C8.70011 9.19637 8.37978 9.58693 8.19068 10.0438C8.00158 10.5007 7.9522 11.0034 8.04878 11.4884C8.14536 11.9733 8.38357 12.4187 8.73328 12.7683C9.08299 13.1179 9.52851 13.3559 10.0135 13.4523C10.4985 13.5487 11.0012 13.4992 11.458 13.3099C11.9148 13.1206 12.3052 12.8002 12.5799 12.389C12.8546 11.9778 13.0012 11.4945 13.0012 11C13.0008 10.3369 12.737 9.70105 12.268 9.23223C11.7991 8.76341 11.1631 8.49994 10.5 8.49969ZM16.3458 6.57781C16.2185 6.25524 16.0263 5.96226 15.7811 5.71705C15.5359 5.47184 15.2429 5.27963 14.9203 5.15234C13.9359 4.76375 11.5922 4.85094 10.5 4.85094C9.40781 4.85094 7.06641 4.76047 6.07922 5.15234C5.75664 5.27963 5.46367 5.47184 5.21846 5.71705C4.97325 5.96226 4.78104 6.25524 4.65375 6.57781C4.26562 7.56219 4.35234 9.90828 4.35234 10.9995C4.35234 12.0908 4.26562 14.4341 4.65562 15.4217C4.78291 15.7443 4.97512 16.0373 5.22033 16.2825C5.46554 16.5277 5.75852 16.7199 6.08109 16.8472C7.06547 17.2358 9.40922 17.1486 10.5019 17.1486C11.5945 17.1486 13.935 17.2391 14.9222 16.8472C15.2448 16.7199 15.5377 16.5277 15.783 16.2825C16.0282 16.0373 16.2204 15.7443 16.3477 15.4217C16.7391 14.4373 16.6491 12.0913 16.6491 11C16.6491 9.90875 16.7391 7.56594 16.3477 6.57828L16.3458 6.57781ZM10.5 14.8438C9.73978 14.8438 8.99663 14.6183 8.36453 14.196C7.73243 13.7736 7.23976 13.1733 6.94884 12.4709C6.65791 11.7686 6.58179 10.9957 6.73011 10.2501C6.87842 9.50451 7.2445 8.81962 7.78206 8.28206C8.31962 7.7445 9.00451 7.37842 9.75012 7.23011C10.4957 7.08179 11.2686 7.15791 11.9709 7.44884C12.6733 7.73976 13.2736 8.23243 13.696 8.86453C14.1183 9.49663 14.3438 10.2398 14.3438 11C14.3444 11.5049 14.2454 12.005 14.0524 12.4717C13.8595 12.9383 13.5764 13.3623 13.2193 13.7193C12.8623 14.0764 12.4383 14.3595 11.9717 14.5524C11.505 14.7454 11.0049 14.8444 10.5 14.8438ZM14.5022 7.89219C14.3247 7.89228 14.1512 7.83974 14.0036 7.74121C13.856 7.64268 13.7409 7.5026 13.673 7.33866C13.605 7.17473 13.5871 6.99432 13.6217 6.82026C13.6563 6.64619 13.7417 6.48628 13.8671 6.36076C13.9926 6.23524 14.1525 6.14974 14.3265 6.11509C14.5006 6.08043 14.681 6.09817 14.8449 6.16606C15.0089 6.23395 15.1491 6.34895 15.2477 6.4965C15.3463 6.64405 15.3989 6.81753 15.3989 6.995C15.3994 7.11285 15.3766 7.22964 15.3319 7.33866C15.2871 7.44769 15.2213 7.54681 15.1382 7.63034C15.055 7.71387 14.9562 7.78016 14.8474 7.82542C14.7386 7.87067 14.6219 7.894 14.5041 7.89406L14.5022 7.89219ZM18.75 0.5H2.25C1.65326 0.5 1.08097 0.737053 0.65901 1.15901C0.237053 1.58097 0 2.15326 0 2.75L0 19.25C0 19.8467 0.237053 20.419 0.65901 20.841C1.08097 21.2629 1.65326 21.5 2.25 21.5H18.75C19.3467 21.5 19.919 21.2629 20.341 20.841C20.7629 20.419 21 19.8467 21 19.25V2.75C21 2.15326 20.7629 1.58097 20.341 1.15901C19.919 0.737053 19.3467 0.5 18.75 0.5ZM17.9475 14.0938C17.887 15.2952 17.6128 16.3597 16.7358 17.2344C15.8588 18.1091 14.7952 18.3889 13.5952 18.4461C12.3572 18.5159 8.64563 18.5159 7.40766 18.4461C6.20625 18.3856 5.14547 18.1109 4.26703 17.2344C3.38859 16.3578 3.1125 15.2928 3.05531 14.0938C2.98547 12.8553 2.98547 9.14328 3.05531 7.90625C3.11578 6.70484 3.38672 5.64031 4.26703 4.76562C5.14734 3.89094 6.21094 3.61438 7.40766 3.55719C8.64563 3.48734 12.3572 3.48734 13.5952 3.55719C14.7966 3.61766 15.8606 3.89234 16.7358 4.76891C17.6109 5.64547 17.8903 6.71047 17.9475 7.91187C18.0173 9.14563 18.0173 12.8544 17.9475 14.0938Z" fill="#F0E9D1"/>
</svg>
